<?xml version="1.0" encoding="UTF-8" standalone="no"?>
<svg
   xmlns:dc="http://purl.org/dc/elements/1.1/"
   xmlns:cc="http://creativecommons.org/ns#"
   xmlns:rdf="http://www.w3.org/1999/02/22-rdf-syntax-ns#"
   xmlns:svg="http://www.w3.org/2000/svg"
   xmlns="http://www.w3.org/2000/svg"
   xmlns:sodipodi="http://sodipodi.sourceforge.net/DTD/sodipodi-0.dtd"
   xmlns:inkscape="http://www.inkscape.org/namespaces/inkscape"
   aria-hidden="true"
   focusable="false"
   data-prefix="fas"
   data-icon="caret-right"
   class="svg-inline--fa fa-caret-right fa-w-6"
   role="img"
   viewBox="0 0 192 512"
   version="1.1"
   id="svg4"
   sodipodi:docname="caret-right-solid.svg"
   inkscape:version="1.0.2-2 (e86c870879, 2021-01-15)">
  <metadata
     id="metadata10">
    <rdf:RDF>
      <cc:Work
         rdf:about="">
        <dc:format>image/svg+xml</dc:format>
        <dc:type
           rdf:resource="http://purl.org/dc/dcmitype/StillImage" />
      </cc:Work>
    </rdf:RDF>
  </metadata>
  <defs
     id="defs8" />
  <sodipodi:namedview
     pagecolor="#ffffff"
     bordercolor="#666666"
     borderopacity="1"
     objecttolerance="10"
     gridtolerance="10"
     guidetolerance="10"
     inkscape:pageopacity="0"
     inkscape:pageshadow="2"
     inkscape:window-width="1920"
     inkscape:window-height="986"
     id="namedview6"
     showgrid="false"
     inkscape:zoom="1.5625"
     inkscape:cx="96"
     inkscape:cy="253.12"
     inkscape:window-x="-11"
     inkscape:window-y="-11"
     inkscape:window-maximized="1"
     inkscape:current-layer="svg4" />
  <path
     fill="currentColor"
     d="M0 384.662V127.338c0-17.818 21.543-26.741 34.142-14.142l128.662 128.662c7.81 7.81 7.81 20.474 0 28.284L34.142 398.804C21.543 411.404 0 402.48 0 384.662z"
     id="path2" />
  <path
     style="fill:#808080;stroke-width:0.64"
     d="M 14.72,403.5991 C 8.5860378,401.58237 3.4207259,396.72728 1.4745395,391.14913 0.37626573,388.00127 0.32,381.41487 0.32,256 c 0,-125.41487 0.0562657,-132.00127 1.1545395,-135.14913 1.4752007,-4.22821 5.4611328,-8.75492 9.6465175,-10.95527 2.854619,-1.50074 4.024337,-1.72398 9.038943,-1.72512 4.792689,-0.001 6.243656,0.25012 8.64,1.49585 2.005841,1.04273 23.102803,21.72977 69.50592,68.15541 53.87645,53.90261 66.91582,67.27061 68.14089,69.85826 2.14757,4.5362 2.14757,12.1038 0,16.64 -1.22507,2.58765 -14.26444,15.95565 -68.14089,69.85826 -47.879388,47.90262 -67.436266,67.06561 -69.50592,68.10603 -3.105428,1.56109 -11.069074,2.30475 -14.08,1.31481 z"
     id="path835" />
</svg>
